<svg width="109" height="114" viewBox="0 0 109 114" fill="none" xmlns="http://www.w3.org/2000/svg">
<mask id="mask0_1856_6816" style="mask-type:alpha" maskUnits="userSpaceOnUse" x="9" y="10" width="91" height="90">
<path d="M9.01807 55C9.01807 35.2751 9.01807 25.4127 14.4658 18.7746C15.4631 17.5593 16.5774 16.4451 17.7926 15.4477C24.4307 10 34.2932 10 54.0181 10C73.743 10 83.6054 10 90.2435 15.4477C91.4587 16.4451 92.573 17.5593 93.5703 18.7746C99.0181 25.4127 99.0181 35.2751 99.0181 55C99.0181 74.7249 99.0181 84.5873 93.5703 91.2254C92.573 92.4407 91.4587 93.5549 90.2435 94.5523C83.6054 100 73.743 100 54.0181 100C34.2932 100 24.4307 100 17.7926 94.5523C16.5774 93.5549 15.4631 92.4407 14.4658 91.2254C9.01807 84.5873 9.01807 74.7249 9.01807 55Z" fill="#C0428A"/>
</mask>
<g mask="url(#mask0_1856_6816)">
<path d="M9.01807 55C9.01807 35.2751 9.01807 25.4127 14.4658 18.7746C15.4631 17.5593 16.5774 16.4451 17.7926 15.4477C24.4307 10 34.2932 10 54.0181 10C73.743 10 83.6054 10 90.2435 15.4477C91.4587 16.4451 92.573 17.5593 93.5703 18.7746C99.0181 25.4127 99.0181 35.2751 99.0181 55C99.0181 74.7249 99.0181 84.5873 93.5703 91.2254C92.573 92.4407 91.4587 93.5549 90.2435 94.5523C83.6054 100 73.743 100 54.0181 100C34.2932 100 24.4307 100 17.7926 94.5523C16.5774 93.5549 15.4631 92.4407 14.4658 91.2254C9.01807 84.5873 9.01807 74.7249 9.01807 55Z" fill="#FCD27D"/>
<path d="M30.0181 100.375C16.0705 86.4274 6.5269 59.1483 5.68519 50.6023C5.53111 49.0379 5.53111 47.462 5.68519 45.8975C6.5269 37.3515 13.5007 30.3777 27.4483 16.4301C41.3959 2.48253 48.3697 18.0087 56.9157 17.167C58.4802 17.0129 60.056 17.0129 61.6205 17.167C70.1665 18.0087 77.1403 2.48252 91.0879 16.4301C105.036 30.3777 82.0093 37.3515 82.851 45.8975C83.0051 47.462 83.0051 49.0379 82.851 50.6023C82.0093 59.1483 105.036 66.1221 91.0879 80.0697C77.1403 94.0173 70.1665 100.991 61.6205 101.833C60.056 101.987 58.4802 101.987 56.9157 101.833C48.3697 100.991 43.9657 114.323 30.0181 100.375Z" fill="#A4E2F8"/>
<rect x="-33.6215" y="48.25" width="90" height="90" rx="32" transform="rotate(-45 -33.6215 48.25)" fill="#AFA5F9"/>
<g filter="url(#filter0_i_1856_6816)">
<path d="M9.01807 55C9.01807 35.2751 9.01807 25.4127 14.4658 18.7746C15.4631 17.5593 16.5774 16.4451 17.7926 15.4477C24.4307 10 34.2932 10 54.0181 10C73.743 10 83.6054 10 90.2435 15.4477C91.4587 16.4451 92.573 17.5593 93.5703 18.7746C99.0181 25.4127 99.0181 35.2751 99.0181 55C99.0181 74.7249 99.0181 84.5873 93.5703 91.2254C92.573 92.4407 91.4587 93.5549 90.2435 94.5523C83.6054 100 73.743 100 54.0181 100C34.2932 100 24.4307 100 17.7926 94.5523C16.5774 93.5549 15.4631 92.4407 14.4658 91.2254C9.01807 84.5873 9.01807 74.7249 9.01807 55Z" fill="#E6EEF4" fill-opacity="0.01"/>
</g>
</g>
<g filter="url(#filter1_d_1856_6816)">
<path d="M9.01807 49C9.01807 29.2751 9.01807 19.4127 14.4658 12.7746C15.4631 11.5593 16.5774 10.4451 17.7926 9.44775C24.4307 4 34.2932 4 54.0181 4C73.743 4 83.6054 4 90.2435 9.44775C91.4587 10.4451 92.573 11.5593 93.5703 12.7746C99.0181 19.4127 99.0181 29.2751 99.0181 49C99.0181 68.7249 99.0181 78.5873 93.5703 85.2254C92.573 86.4407 91.4587 87.5549 90.2435 88.5523C83.6054 94 73.743 94 54.0181 94C34.2932 94 24.4307 94 17.7926 88.5523C16.5774 87.5549 15.4631 86.4407 14.4658 85.2254C9.01807 78.5873 9.01807 68.7249 9.01807 49Z" fill="white"/>
</g>
<g filter="url(#filter2_d_1856_6816)">
<path fill-rule="evenodd" clip-rule="evenodd" d="M71.3529 63.3782C75.4815 59.0676 78.0181 53.2199 78.0181 46.7798C78.0181 33.525 67.2729 22.7798 54.0181 22.7798C40.7632 22.7798 30.0181 33.525 30.0181 46.7798C30.0181 60.0347 40.7632 70.7798 54.0181 70.7798C55.9543 70.7798 57.837 70.5506 59.6405 70.1176C61.2863 69.8177 62.9836 69.8848 64.6182 70.3234C66.7497 70.8953 68.6999 72.0796 70.2348 73.7576C71.9122 75.5914 74.7586 75.7182 76.5925 74.0408C78.4263 72.3634 78.5531 69.517 76.8756 67.6831C75.2788 65.9374 73.4103 64.4839 71.3529 63.3782Z" fill="#19AAF8"/>
</g>
<path fill-rule="evenodd" clip-rule="evenodd" d="M66.7947 38.8782C68.2592 40.3427 68.2592 42.717 66.7947 44.1815L55.5447 55.4315C54.0803 56.896 51.7059 56.896 50.2414 55.4315L43.8664 49.0565C42.4019 47.592 42.4019 45.2177 43.8664 43.7532C45.3309 42.2887 47.7053 42.2887 49.1697 43.7532L52.8931 47.4765L61.4914 38.8782C62.9559 37.4137 65.3302 37.4137 66.7947 38.8782Z" fill="white"/>
<defs>
<filter id="filter0_i_1856_6816" x="9.01807" y="9" width="90" height="91" filterUnits="userSpaceOnUse" color-interpolation-filters="sRGB">
<feFlood flood-opacity="0" result="BackgroundImageFix"/>
<feBlend mode="normal" in="SourceGraphic" in2="BackgroundImageFix" result="shape"/>
<feColorMatrix in="SourceAlpha" type="matrix" values="0 0 0 0 0 0 0 0 0 0 0 0 0 0 0 0 0 0 127 0" result="hardAlpha"/>
<feOffset dy="-1"/>
<feGaussianBlur stdDeviation="0.5"/>
<feComposite in2="hardAlpha" operator="arithmetic" k2="-1" k3="1"/>
<feColorMatrix type="matrix" values="0 0 0 0 0 0 0 0 0 0 0 0 0 0 0 0 0 0 0.1 0"/>
<feBlend mode="normal" in2="shape" result="effect1_innerShadow_1856_6816"/>
</filter>
<filter id="filter1_d_1856_6816" x="9.01807" y="4" width="90" height="91" filterUnits="userSpaceOnUse" color-interpolation-filters="sRGB">
<feFlood flood-opacity="0" result="BackgroundImageFix"/>
<feColorMatrix in="SourceAlpha" type="matrix" values="0 0 0 0 0 0 0 0 0 0 0 0 0 0 0 0 0 0 127 0" result="hardAlpha"/>
<feOffset dy="1"/>
<feComposite in2="hardAlpha" operator="out"/>
<feColorMatrix type="matrix" values="0 0 0 0 0 0 0 0 0 0 0 0 0 0 0 0 0 0 0.1 0"/>
<feBlend mode="normal" in2="BackgroundImageFix" result="effect1_dropShadow_1856_6816"/>
<feBlend mode="normal" in="SourceGraphic" in2="effect1_dropShadow_1856_6816" result="shape"/>
</filter>
<filter id="filter2_d_1856_6816" x="0.0180664" y="0.779846" width="108.037" height="112.441" filterUnits="userSpaceOnUse" color-interpolation-filters="sRGB">
<feFlood flood-opacity="0" result="BackgroundImageFix"/>
<feColorMatrix in="SourceAlpha" type="matrix" values="0 0 0 0 0 0 0 0 0 0 0 0 0 0 0 0 0 0 127 0" result="hardAlpha"/>
<feOffset dy="8"/>
<feGaussianBlur stdDeviation="15"/>
<feComposite in2="hardAlpha" operator="out"/>
<feColorMatrix type="matrix" values="0 0 0 0 0.0705882 0 0 0 0 0.603922 0 0 0 0 0.909804 0 0 0 0.16 0"/>
<feBlend mode="normal" in2="BackgroundImageFix" result="effect1_dropShadow_1856_6816"/>
<feBlend mode="normal" in="SourceGraphic" in2="effect1_dropShadow_1856_6816" result="shape"/>
</filter>
</defs>
</svg>
